<?xml version="1.0" encoding="utf-8"?>
<!-- Generator: Adobe Illustrator 24.0.1, SVG Export Plug-In . SVG Version: 6.00 Build 0)  -->
<svg version="1.1" id="圖層_1" xmlns="http://www.w3.org/2000/svg" xmlns:xlink="http://www.w3.org/1999/xlink" x="0px" y="0px"
	 viewBox="0 0 345.2 402.7" style="enable-background:new 0 0 345.2 402.7;" xml:space="preserve">
<style type="text/css">
	.st0{fill:#FFFFFF;stroke:#FFFFFF;stroke-miterlimit:10;}
	.st1{fill:#040000;}
	.st2{fill:#040000;stroke:#040000;stroke-width:2;stroke-miterlimit:10;}
	.st3{fill:none;stroke:#040000;stroke-width:2;stroke-miterlimit:10;}
	.st4{fill:#E4813F;}
	.st5{fill:#706C69;}
	.st6{fill:#181818;stroke:#050101;stroke-miterlimit:10;}
</style>
<g>
	<path class="st0" d="M270.4,70.7c-18.6-17.6-41.7,65.1-41.7,65.1h-54.5h-54.5c0,0-23.2-82.7-41.7-65.1s-55.8,318-44.1,327.2
		s141.3,4.3,141.3,4.3s130.4,5.3,139.4-4.3C323.4,388.3,288.9,88.2,270.4,70.7z"/>
	<g>
		<polygon class="st1" points="166.8,245.1 180.7,245.1 173.7,256.2 		"/>
		<line class="st2" x1="173.7" y1="265.1" x2="173.7" y2="251.9"/>
	</g>
	<g>
		<g>
			<line class="st3" x1="101.1" y1="254.3" x2="132" y2="256.4"/>
			<line class="st3" x1="101.1" y1="267.6" x2="132" y2="265.5"/>
		</g>
		<g>
			<line class="st3" x1="246.4" y1="254.3" x2="215.5" y2="256.4"/>
			<line class="st3" x1="246.4" y1="267.6" x2="215.5" y2="265.5"/>
		</g>
	</g>
	<path class="st4" d="M142.7,135.7h6.1c0,0,0.7,25.8-2.4,28.3C143.3,166.5,141.8,141.5,142.7,135.7z"/>
	<path class="st5" d="M170.2,135.7h6.1c0,0,0.7,25.8-2.4,28.3C170.7,166.5,169.2,141.5,170.2,135.7z"/>
	<path class="st4" d="M197.5,135.7h6.1c0,0,0.7,25.8-2.4,28.3C198.1,166.5,196.6,141.5,197.5,135.7z"/>
	<g>
		<circle class="st6" cx="130.7" cy="204.4" r="7.3"/>
		<circle class="st6" cx="216.8" cy="204.4" r="7.3"/>
	</g>
</g>
</svg>
