<?xml version="1.0" encoding="utf-8"?>
<!-- Generator: Adobe Illustrator 24.0.1, SVG Export Plug-In . SVG Version: 6.00 Build 0)  -->
<svg version="1.1" id="top" xmlns="http://www.w3.org/2000/svg" xmlns:xlink="http://www.w3.org/1999/xlink" x="0px" y="0px"
	 viewBox="0 0 50 50" style="enable-background:new 0 0 50 50;" xml:space="preserve">
<style type="text/css">
	.st0{opacity:0.6;}
	.st1{fill:#707070;}
	.st2{fill:#FFFFFF;}
</style>
<g>
	<g class="st0">
		<path class="st1" d="M30,25.3c-0.5,0.6-1.3,0.9-2,0.9s-1.5-0.3-2-0.9c0,0-11.5-12.7-11.5-13.2c0-0.8,0.6-1.4,1.4-1.4
			c0.6,0,1.3,0.8,1.3,0.8l10.8,12l0,0l10.8-12.1c0.7-0.7,0.8-0.7,1.3-0.7c0.8,0,1.4,0.6,1.4,1.4C41.5,12.6,30,25.3,30,25.3z"/>
	</g>
	<g>
		<path class="st2" d="M27,25.3c-0.5,0.6-1.3,0.9-2,0.9s-1.5-0.3-2-0.9c0,0-11.5-12.7-11.5-13.2c0-0.8,0.6-1.4,1.4-1.4
			c0.6,0,1.3,0.8,1.3,0.8l10.8,12l0,0l10.8-12.1c0.7-0.7,0.8-0.7,1.3-0.7c0.8,0,1.4,0.6,1.4,1.4C38.5,12.6,27,25.3,27,25.3z"/>
	</g>
</g>
<g>
	<g class="st0">
		<path class="st1" d="M30,38.4c-0.5,0.6-1.3,0.9-2,0.9s-1.5-0.3-2-0.9c0,0-11.5-12.7-11.5-13.2c0-0.8,0.6-1.4,1.4-1.4
			c0.6,0,1.3,0.8,1.3,0.8l10.8,12l0,0l10.8-12.1c0.7-0.7,0.8-0.7,1.3-0.7c0.8,0,1.4,0.6,1.4,1.4C41.5,25.7,30,38.4,30,38.4z"/>
	</g>
	<g>
		<path class="st2" d="M27,38.4c-0.5,0.6-1.3,0.9-2,0.9s-1.5-0.3-2-0.9c0,0-11.5-12.7-11.5-13.2c0-0.8,0.6-1.4,1.4-1.4
			c0.6,0,1.3,0.8,1.3,0.8l10.8,12l0,0l10.8-12.1c0.7-0.7,0.8-0.7,1.3-0.7c0.8,0,1.4,0.6,1.4,1.4C38.5,25.7,27,38.4,27,38.4z"/>
	</g>
</g>
</svg>
