<?xml version="1.0" encoding="utf-8"?>
<!-- Generator: Adobe Illustrator 24.0.1, SVG Export Plug-In . SVG Version: 6.00 Build 0)  -->
<svg version="1.1" id="圖層_1" xmlns="http://www.w3.org/2000/svg" xmlns:xlink="http://www.w3.org/1999/xlink" x="0px" y="0px"
	 viewBox="0 0 47.5 53.1" style="enable-background:new 0 0 47.5 53.1;" xml:space="preserve">
<style type="text/css">
	.st0{fill:none;stroke:#FFFFFF;stroke-width:2;stroke-miterlimit:10;}
</style>
<g>
	<path class="st0" d="M18.3,50.4c0,0,5.6-14.8,5.7-31.2"/>
	<path class="st0" d="M24,19c0,0,16.3-1.5,17.9-8.7"/>
	<path class="st0" d="M23.7,18.9c0,0,11.2-4.3,11.2-10.5"/>
	<path class="st0" d="M25,18.6c0,0,7.1-7.7,5.3-11.2"/>
	<path class="st0" d="M23.7,18.6c0,0-1.7-8.7,0.3-10.2"/>
	<path class="st0" d="M23.6,19.1c0,0-16.3-1.5-17.9-8.7"/>
	<path class="st0" d="M23.9,19c0,0-11.2-4.3-11.2-10.5"/>
	<path class="st0" d="M22.6,18.7c0,0-7.1-7.7-5.3-11.2"/>
</g>
</svg>
